<?xml version="1.0" encoding="utf-8"?>
<!-- Svg Vector Icons : http://www.onlinewebfonts.com/icon -->
<!DOCTYPE svg PUBLIC "-//W3C//DTD SVG 1.1//EN" "http://www.w3.org/Graphics/SVG/1.1/DTD/svg11.dtd">
<svg version="1.1" xmlns="http://www.w3.org/2000/svg" xmlns:xlink="http://www.w3.org/1999/xlink" x="0px" y="0px" viewBox="0 0 256 256" enable-background="new 0 0 256 256" xml:space="preserve">
<metadata> Svg Vector Icons : http://www.onlinewebfonts.com/icon </metadata>
<g><g><path 
fill="#000000" 
d="M10,147.6c2.6-3.5,26.2-35.9,34.4-46.5h0.7c6.6,12.5,21,41.7,23.4,45.7l-14.8,8.1L49,144.1l-21,1.2c-0.7,1-3.9,6.4-5.9,9.6L10,147.6z M45.6,134.4c-1.4-3.9-3.3-8.8-4.2-11.7c-2.1,3.3-5.3,8.4-7.6,12.3L45.6,134.4z"/>
<path fill="#000000" d="M102.3,153.2c-2.2,0.3-4.6,0.5-7.5,0.5c-20.6,0-27.1-9.5-26-17.7c1.3-9.7,12.8-22,35-25.9l1.2,11.6c-13.1,2.1-19.1,7.3-19.9,12.8c-0.6,4.6,3.7,7.8,12,7.8c2.6,0,4.6-0.1,6.1-0.3L102.3,153.2z"/>
<path fill="#000000" d="M108.7,152.7c0.8-3.7,2.8-18.4,3.1-20.1l1.3-9.2c0.1-1.1,2.3-17.7,2.5-19.7c5.7,0,23.1-0.8,30.4-1l-1.3,11.4l-15.2,0.3l-1.5,10.6c1.5,0,6.2-0.4,14-0.6l-1.3,10.9l-14.1-0.1l-0.8,5.9c-0.1,1.1-1.4,10.7-1.6,11.7H108.7L108.7,152.7z"/>
<path fill="#000000" d="M162.8,125.5c-1.3,9.4-1.4,13.4,0.6,16c1.1,1.4,2.6,1.9,4.6,1.9c2.2,0,4.1-0.9,5.5-2.6c2.1-2.4,2.4-4.6,4.3-18l0.3-2.2c0.6-4.1,0.9-8.1,1.1-10.3h15.2c-0.2,1.3-0.7,5.7-1.4,10.4l-0.4,2.8c-1.6,11.3-3.3,18.1-8.7,23.5c-4.4,4.4-11.2,6.6-18.1,6.6c-5.1,0-13-0.8-16.8-7.4c-2.4-4.3-3-8.6-1-22.9l0.4-3.2c0.4-2.7,1.1-7.6,1.3-8.9h15.5c-0.4,1.5-1,4.8-1.8,10.2L162.8,125.5z"/>
<path fill="#000000" d="M193.6,152.7c1-4.1,6.7-34.3,8.4-42.1l1.2-0.3c8,5.7,25.4,19.2,26.6,20.6c0.4-3.2,2.3-17.6,2.7-20.2L246,111c-2,8.5-7,34.2-8.5,42.6l-1.2,0.3c-5.8-3.8-24.2-18.6-26.4-20.7c-0.4,3-2.5,18.2-2.7,19.9L193.6,152.7z"/></g></g>
</svg>