<svg width="360" height="120" xmlns="http://www.w3.org/2000/svg">
 <g>
  <text fill="#000000" stroke-width="0" x="348.785989" y="219.66614" id="svg_1" font-size="24" font-family="'Reem Kufi'" text-anchor="start" xml:space="preserve" stroke="#000" transform="matrix(2.6899399999999996,0,0,2.5054699999999994,-927.8063808956147,-464.29014268684386) ">HIMEBLOG</text>
  <rect fill="#ffffff" stroke-width="0" x="49.740169" y="78.537477" width="10.62004" height="15" id="svg_8" stroke="#000" transform="rotate(45 55.05022048950198,86.03755950927733) "/>
  <rect stroke="#000" fill="#ffffff" stroke-width="0" x="124.917128" y="79.46109" width="11.150371" height="15" id="svg_9" transform="rotate(45 130.4923095703125,86.96109771728516) "/>
  <rect fill="#ffffff" stroke-width="0" x="243.916089" y="80.898587" width="10.62004" height="15" id="svg_11" stroke="#000" transform="rotate(45 249.22610473632812,88.39859008789061) "/>
  <rect stroke="#000" fill="#ffffff" stroke-width="0" x="335.487854" y="73.236639" width="10.62004" height="19.772971" id="svg_12" transform="rotate(45 340.7978820800781,83.1231231689453) "/>
  <rect stroke="#000" fill="#ffffff" stroke-width="0" x="178.841292" y="35.017726" width="11.199833" height="18.66648" id="svg_13" transform="rotate(45 184.44120788574222,44.35096740722657) "/>
  <line fill="none" x1="40.752449" y1="81.224597" x2="62.529439" y2="81.224597" id="svg_15" stroke="#000" transform="rotate(-45 51.640918731689425,81.22466278076172) "/>
  <line fill="none" x1="235.312169" y1="84.639357" x2="256.584249" y2="84.639357" id="svg_16" stroke="#000" transform="rotate(-45 245.94860839843747,84.63935852050778) "/>
  <line stroke="#000" fill="none" x1="113.598192" y1="83.528857" x2="138.135619" y2="83.528857" id="svg_17" transform="rotate(-45 125.86691284179683,83.52885437011716) "/>
  <line fill="none" stroke="#000" x1="320.131429" y1="79.549467" x2="354.131429" y2="79.549467" id="svg_18" transform="rotate(-45 337.1266174316406,79.54956054687501) "/>
  <line fill="none" stroke="#000" x1="172.516511" y1="46.806507" x2="206.516511" y2="46.806507" id="svg_19" transform="rotate(-45 189.5165252685547,46.80650329589845) "/>
 </g>
</svg>